<svg width="92" height="29" viewBox="0 0 92 29" fill="none" xmlns="http://www.w3.org/2000/svg">
<path fill-rule="evenodd" clip-rule="evenodd" d="M87.7137 7.99777C89.6073 7.99777 91.1423 6.46274 91.1423 4.5692C91.1423 2.67565 89.6073 1.14062 87.7137 1.14062C85.8202 1.14062 84.2852 2.67565 84.2852 4.5692C84.2852 6.46274 85.8202 7.99777 87.7137 7.99777Z" fill="#106AEB"/>
<path d="M8.80734 22.24C7.72734 22.24 6.72068 22.0467 5.78734 21.66C4.86734 21.2733 4.05401 20.7333 3.34734 20.04C2.65401 19.3467 2.10734 18.5333 1.70734 17.6C1.32068 16.6667 1.12734 15.6467 1.12734 14.54C1.12734 13.4333 1.32068 12.4133 1.70734 11.48C2.10734 10.5333 2.65401 9.72 3.34734 9.04C4.04068 8.34667 4.85401 7.81333 5.78734 7.44C6.72068 7.05333 7.72734 6.86 8.80734 6.86C9.90068 6.86 10.9073 7.05333 11.8273 7.44C12.7607 7.81333 13.574 8.34667 14.2673 9.04C14.974 9.73333 15.5207 10.5467 15.9073 11.48C16.294 12.4133 16.4873 13.4333 16.4873 14.54C16.4873 15.6467 16.2873 16.6667 15.8873 17.6C15.5007 18.5333 14.9607 19.3467 14.2673 20.04C13.574 20.7333 12.7607 21.2733 11.8273 21.66C10.894 22.0467 9.88734 22.24 8.80734 22.24ZM8.80734 20.08C9.58068 20.08 10.2873 19.94 10.9273 19.66C11.5807 19.38 12.1473 18.9933 12.6273 18.5C13.1073 17.9933 13.4807 17.4067 13.7473 16.74C14.014 16.06 14.1473 15.3267 14.1473 14.54C14.1473 13.7533 14.014 13.0267 13.7473 12.36C13.4807 11.6933 13.1073 11.1067 12.6273 10.6C12.1473 10.0933 11.5807 9.7 10.9273 9.42C10.2873 9.14 9.58068 9 8.80734 9C8.03401 9 7.32068 9.14 6.66734 9.42C6.02734 9.7 5.46734 10.0933 4.98734 10.6C4.50734 11.1067 4.13401 11.6933 3.86734 12.36C3.61401 13.0267 3.48734 13.7533 3.48734 14.54C3.48734 15.3267 3.61401 16.06 3.86734 16.74C4.13401 17.4067 4.50734 17.9933 4.98734 18.5C5.46734 18.9933 6.03401 19.38 6.68734 19.66C7.34068 19.94 8.04734 20.08 8.80734 20.08ZM12.5473 23.8L7.66734 16.04H10.1873L15.0873 23.8H12.5473ZM23.0659 22.24C22.2526 22.24 21.5393 22.06 20.9259 21.7C20.3126 21.3267 19.8326 20.8133 19.4859 20.16C19.1526 19.4933 18.9859 18.7267 18.9859 17.86V11.18H21.2459V17.66C21.2459 18.1533 21.3459 18.5867 21.5459 18.96C21.7459 19.3333 22.0259 19.6267 22.3859 19.84C22.7459 20.04 23.1593 20.14 23.6259 20.14C24.1059 20.14 24.5259 20.0333 24.8859 19.82C25.2459 19.6067 25.5259 19.3067 25.7259 18.92C25.9393 18.5333 26.0459 18.08 26.0459 17.56V11.18H28.2859V22H26.1459V19.88L26.3859 20.16C26.1326 20.8267 25.7126 21.34 25.1259 21.7C24.5393 22.06 23.8526 22.24 23.0659 22.24ZM31.2247 22V6.86H33.4847V17L32.6047 16.78L38.0247 11.18H40.8447L36.7647 15.52L41.0247 22H38.4247L34.6247 16.26L35.9647 16.08L32.7647 19.48L33.4847 17.98V22H31.2247ZM43.0923 22V7.1H45.2923L50.8923 14.86H49.7923L55.2923 7.1H57.4923V22H55.1523V9.88L56.0323 10.12L50.4123 17.8H50.1723L44.6723 10.12L45.4523 9.88V22H43.0923ZM64.6528 22.24C63.5461 22.24 62.5728 21.9667 61.7328 21.42C60.9061 20.8733 60.3261 20.14 59.9928 19.22L61.7328 18.4C62.0261 19.0133 62.4261 19.5 62.9328 19.86C63.4528 20.22 64.0261 20.4 64.6528 20.4C65.1861 20.4 65.6195 20.28 65.9528 20.04C66.2861 19.8 66.4528 19.4733 66.4528 19.06C66.4528 18.7933 66.3795 18.58 66.2328 18.42C66.0861 18.2467 65.8995 18.1067 65.6728 18C65.4595 17.8933 65.2395 17.8133 65.0128 17.76L63.3128 17.28C62.3795 17.0133 61.6795 16.6133 61.2128 16.08C60.7595 15.5333 60.5328 14.9 60.5328 14.18C60.5328 13.5267 60.6995 12.96 61.0328 12.48C61.3661 11.9867 61.8261 11.6067 62.4128 11.34C62.9995 11.0733 63.6595 10.94 64.3928 10.94C65.3795 10.94 66.2595 11.1867 67.0328 11.68C67.8061 12.16 68.3528 12.8333 68.6728 13.7L66.9328 14.52C66.7195 14 66.3795 13.5867 65.9128 13.28C65.4595 12.9733 64.9461 12.82 64.3728 12.82C63.8795 12.82 63.4861 12.94 63.1928 13.18C62.8995 13.4067 62.7528 13.7067 62.7528 14.08C62.7528 14.3333 62.8195 14.5467 62.9528 14.72C63.0861 14.88 63.2595 15.0133 63.4728 15.12C63.6861 15.2133 63.9061 15.2933 64.1328 15.36L65.8928 15.88C66.7861 16.1333 67.4728 16.5333 67.9528 17.08C68.4328 17.6133 68.6728 18.2533 68.6728 19C68.6728 19.64 68.4995 20.2067 68.1528 20.7C67.8195 21.18 67.3528 21.56 66.7528 21.84C66.1528 22.1067 65.4528 22.24 64.6528 22.24ZM76.4072 26.4C75.6205 26.4 74.8939 26.2733 74.2272 26.02C73.5605 25.7667 72.9872 25.4133 72.5072 24.96C72.0272 24.52 71.6672 24 71.4272 23.4L73.5072 22.54C73.6939 23.0467 74.0339 23.4667 74.5272 23.8C75.0339 24.1333 75.6539 24.3 76.3872 24.3C76.9605 24.3 77.4739 24.1867 77.9272 23.96C78.3805 23.7467 78.7405 23.4267 79.0072 23C79.2739 22.5867 79.4072 22.0867 79.4072 21.5V19.06L79.8072 19.52C79.4339 20.2133 78.9139 20.74 78.2472 21.1C77.5939 21.46 76.8539 21.64 76.0272 21.64C75.0272 21.64 74.1272 21.4067 73.3272 20.94C72.5272 20.4733 71.8939 19.8333 71.4272 19.02C70.9739 18.2067 70.7472 17.2933 70.7472 16.28C70.7472 15.2533 70.9739 14.34 71.4272 13.54C71.8939 12.74 72.5205 12.1067 73.3072 11.64C74.0939 11.1733 74.9939 10.94 76.0072 10.94C76.8339 10.94 77.5672 11.12 78.2072 11.48C78.8605 11.8267 79.3939 12.3333 79.8072 13L79.5072 13.56V11.18H81.6472V21.5C81.6472 22.4333 81.4205 23.2667 80.9672 24C80.5272 24.7467 79.9139 25.3333 79.1272 25.76C78.3405 26.1867 77.4339 26.4 76.4072 26.4ZM76.2872 19.54C76.8872 19.54 77.4205 19.4 77.8872 19.12C78.3539 18.8267 78.7205 18.44 78.9872 17.96C79.2672 17.4667 79.4072 16.9133 79.4072 16.3C79.4072 15.6867 79.2672 15.1333 78.9872 14.64C78.7072 14.1467 78.3339 13.76 77.8672 13.48C77.4005 13.1867 76.8739 13.04 76.2872 13.04C75.6739 13.04 75.1272 13.1867 74.6472 13.48C74.1672 13.76 73.7872 14.1467 73.5072 14.64C73.2405 15.12 73.1072 15.6733 73.1072 16.3C73.1072 16.9 73.2405 17.4467 73.5072 17.94C73.7872 18.4333 74.1672 18.8267 74.6472 19.12C75.1272 19.4 75.6739 19.54 76.2872 19.54Z" fill="white"/>
</svg>
