<svg width="198" height="104" viewBox="0 0 198 104" fill="none" xmlns="http://www.w3.org/2000/svg">
<rect width="198" height="104" fill="#F2F8FF"/>
<path opacity="0.28" d="M128.504 46.5865C138.607 46.5865 146.797 38.3963 146.797 28.2932C146.797 18.1902 138.607 10 128.504 10C118.401 10 110.211 18.1902 110.211 28.2932C110.211 38.3963 118.401 46.5865 128.504 46.5865Z" fill="#106AEB" fill-opacity="0.35"/>
<path opacity="0.28" d="M74.8588 94.0028C87.9666 94.0028 98.5926 83.3768 98.5926 70.269C98.5926 57.1611 87.9666 46.5352 74.8588 46.5352C61.751 46.5352 51.125 57.1611 51.125 70.269C51.125 83.3768 61.751 94.0028 74.8588 94.0028Z" fill="#106AEB" fill-opacity="0.35"/>
<path d="M141.603 21.7566C142.948 21.7566 144.038 20.6664 144.038 19.3217C144.038 17.9769 142.948 16.8867 141.603 16.8867C140.258 16.8867 139.168 17.9769 139.168 19.3217C139.168 20.6664 140.258 21.7566 141.603 21.7566Z" fill="#3D3D3D"/>
<path d="M139.752 19.8289C139.707 19.6669 139.684 19.4964 139.684 19.3203" stroke="white" stroke-width="1.5" stroke-miterlimit="10" stroke-linecap="round"/>
<path d="M143.449 19.8594C143.342 20.2264 143.128 20.548 142.844 20.7885" stroke="white" stroke-width="1.5" stroke-miterlimit="10" stroke-linecap="round"/>
<path d="M140.375 17.8413C140.707 17.5671 141.133 17.4023 141.598 17.4023C142.049 17.4023 142.463 17.5575 142.791 17.8173" stroke="white" stroke-width="1.5" stroke-miterlimit="10" stroke-linecap="round"/>
<path d="M146.241 17.4852C147.066 17.4852 147.735 16.8161 147.735 15.9907C147.735 15.1652 147.066 14.4961 146.241 14.4961C145.415 14.4961 144.746 15.1652 144.746 15.9907C144.746 16.8161 145.415 17.4852 146.241 17.4852Z" fill="#106AEB" fill-opacity="0.35"/>
<path d="M145.104 16.3043C145.077 16.2049 145.062 16.1003 145.062 15.9922" stroke="white" stroke-width="1.5" stroke-miterlimit="10" stroke-linecap="round"/>
<path d="M147.371 16.3242C147.306 16.5494 147.174 16.7469 147 16.8944" stroke="white" stroke-width="1.5" stroke-miterlimit="10" stroke-linecap="round"/>
<path d="M145.488 15.082C145.692 14.9136 145.954 14.8125 146.239 14.8125C146.515 14.8125 146.77 14.9077 146.971 15.0672" stroke="white" stroke-width="1.5" stroke-miterlimit="10" stroke-linecap="round"/>
<path d="M74.5508 14.2344C75.336 14.2344 75.336 14.9169 76.1213 14.9169C76.9069 14.9169 76.9069 14.2344 77.6925 14.2344C78.4778 14.2344 78.4778 14.9169 79.263 14.9169C80.0488 14.9169 80.0488 14.2344 80.8347 14.2344C81.6205 14.2344 81.6205 14.9169 82.4064 14.9169" stroke="#106AEB" stroke-opacity="0.35" stroke-width="6" stroke-miterlimit="10" stroke-linecap="round"/>
<path d="M106.222 70.2655H71.7782C71.6484 70.2655 71.5202 70.2594 71.3935 70.2454H69.9103C69.5765 70.2454 69.2613 70.162 68.9848 70.0137C68.804 69.9179 68.6402 69.7928 68.4996 69.6475C68.1536 69.2921 67.9403 68.8086 67.9403 68.2756V66.8403C67.9234 66.6966 67.9141 66.5499 67.9141 66.4015V51.1617H74.6038V23.7148H94.1512L97.3663 28.2926L100.775 33.1454L96.3621 38.7738L103.31 45.0605L99.1678 50.9453L104.26 57.5348L104.17 57.6831L103.829 58.2455L99.9974 64.5552C100.773 65.2258 104.13 68.1427 105.799 69.8376L106.222 70.2655Z" fill="#106AEB" fill-opacity="0.35"/>
<path d="M137.767 23.7148V70.2656H109.042L108.968 70.1915C107.097 68.2926 103.076 64.8334 103.035 64.7979L102.873 64.6589L106.884 58.0525L107.182 57.5612L106.856 57.0946L102.326 50.6118L106.694 44.0734L100.2 38.1747L103.85 33.379L100.278 28.2928L97.0625 23.7151H137.767V23.7148Z" fill="#106AEB" fill-opacity="0.35"/>
<path d="M90.6668 51.2255C92.6165 51.2255 94.197 48.8437 94.197 45.9057C94.197 42.9677 92.6165 40.5859 90.6668 40.5859C88.7172 40.5859 87.1367 42.9677 87.1367 45.9057C87.1367 48.8437 88.7172 51.2255 90.6668 51.2255Z" fill="white"/>
<path d="M115.011 51.2255C116.96 51.2255 118.541 48.8437 118.541 45.9057C118.541 42.9677 116.96 40.5859 115.011 40.5859C113.061 40.5859 111.48 42.9677 111.48 45.9057C111.48 48.8437 113.061 51.2255 115.011 51.2255Z" fill="white"/>
<path d="M97.0664 23.7109L100.282 28.2887L103.854 33.3748L100.204 38.1706L106.698 44.0693L102.33 50.6077L106.86 57.0904L107.186 57.557L106.888 58.0483L102.877 64.6547L103.039 64.7937C103.08 64.8292 107.101 68.2885 108.972 70.1873L109.046 70.2615H137.771V23.7109H97.0664ZM137.519 70.0098H109.151C107.253 68.0832 103.203 64.6023 103.203 64.6023L107.115 58.1581H107.117L107.486 57.5478L107.081 56.9685L102.636 50.6046L107.027 44.0292L100.544 38.1396L104.166 33.381L97.5516 23.9627H137.519V70.0098Z" fill="#3D3D3D"/>
<path d="M90.6858 51.548C88.5996 51.548 86.9023 49.0559 86.9023 45.9927C86.9023 42.9295 88.5996 40.4375 90.6858 40.4375C92.772 40.4375 94.4693 42.9295 94.4693 45.9927C94.4693 49.0559 92.772 51.548 90.6858 51.548ZM90.6858 40.901C88.8551 40.901 87.3658 43.1851 87.3658 45.9928C87.3658 48.8004 88.8551 51.0845 90.6858 51.0845C92.5165 51.0845 94.0058 48.8004 94.0058 45.9928C94.0058 43.1851 92.5165 40.901 90.6858 40.901Z" fill="#3D3D3D"/>
<path d="M92.8412 48.3529C92.8412 49.1671 92.2958 49.8283 91.6237 49.8283C90.9501 49.8283 90.4062 49.1671 90.4062 48.3529C90.4062 47.5387 90.9501 46.8789 91.6237 46.8789C92.2959 46.8789 92.8412 47.5387 92.8412 48.3529Z" fill="#3D3D3D"/>
<path d="M86.0967 48.1797C86.2648 48.701 86.4547 49.2007 86.6772 49.679C86.904 50.1549 87.1674 50.6055 87.4881 51.0048C87.8116 51.4 88.1914 51.7457 88.6405 51.9932C89.0862 52.2504 89.5969 52.392 90.1359 52.4958C89.8656 52.5393 89.5858 52.5558 89.3071 52.5242C89.1665 52.5149 89.0302 52.4792 88.8901 52.4543C88.7544 52.415 88.6164 52.3769 88.4855 52.32C87.9497 52.114 87.4865 51.7366 87.1277 51.2962C86.7718 50.8505 86.5106 50.3413 86.3418 49.8111C86.1724 49.2819 86.0752 48.7302 86.0967 48.1797Z" fill="#3D3D3D"/>
<path d="M115.01 51.548C112.924 51.548 111.227 49.0559 111.227 45.9927C111.227 42.9295 112.924 40.4375 115.01 40.4375C117.096 40.4375 118.794 42.9295 118.794 45.9927C118.794 49.0559 117.096 51.548 115.01 51.548ZM115.01 40.901C113.179 40.901 111.69 43.1851 111.69 45.9928C111.69 48.8004 113.179 51.0845 115.01 51.0845C116.841 51.0845 118.33 48.8004 118.33 45.9928C118.33 43.1851 116.841 40.901 115.01 40.901Z" fill="#3D3D3D"/>
<path d="M115.283 48.3529C115.283 49.1671 114.737 49.8283 114.065 49.8283C113.393 49.8283 112.848 49.1671 112.848 48.3529C112.848 47.5387 113.393 46.8789 114.065 46.8789C114.737 46.8789 115.283 47.5387 115.283 48.3529Z" fill="#3D3D3D"/>
<path d="M119.551 48.1797C119.573 48.7302 119.475 49.2818 119.306 49.811C119.137 50.3412 118.876 50.8504 118.52 51.2961C118.161 51.7363 117.698 52.1139 117.162 52.3199C117.031 52.3767 116.893 52.415 116.758 52.4542C116.617 52.4791 116.481 52.5148 116.341 52.524C116.062 52.5557 115.782 52.5392 115.512 52.4957C116.051 52.392 116.561 52.2502 117.007 51.9931C117.456 51.7455 117.836 51.4 118.16 51.0047C118.48 50.6054 118.744 50.1547 118.971 49.6789C119.193 49.2007 119.383 48.701 119.551 48.1797Z" fill="#3D3D3D"/>
<path d="M91.827 37.4838L87.125 38.7467L91.6292 36.8983C91.7874 36.8333 91.9683 36.909 92.0332 37.0672C92.0982 37.2254 92.0225 37.4063 91.8643 37.4712C91.8525 37.476 91.8389 37.4805 91.827 37.4838Z" fill="#3D3D3D"/>
<path d="M112.606 36.6582L118.527 38.9854L112.408 37.2436C112.244 37.1969 112.149 37.0257 112.195 36.8614C112.242 36.6971 112.413 36.6019 112.578 36.6486C112.587 36.6512 112.597 36.6546 112.606 36.6582Z" fill="#3D3D3D"/>
<path d="M117.706 61.3771C117.698 61.3879 117.682 61.3895 117.672 61.3832C116.063 60.4392 114.378 59.6327 112.627 59.0658C110.921 58.5111 109.149 58.1959 107.4 58.1867H107.271C107.218 58.1867 107.167 58.1806 107.118 58.1682L107.487 57.5579L107.082 56.9786H107.084C107.141 56.9584 107.201 56.9492 107.264 56.9492C107.286 56.9492 107.309 56.9508 107.331 56.9523C107.346 56.9539 107.36 56.9554 107.376 56.957C109.294 57.1593 111.141 57.7001 112.857 58.4648C114.591 59.2373 116.198 60.2308 117.699 61.3401C117.712 61.3492 117.713 61.3647 117.706 61.3771Z" fill="#3D3D3D"/>
<path d="M94.0811 23.8242L97.2311 28.2967H74.7266V23.8332L94.0811 23.8242Z" fill="#3D3D3D"/>
<path d="M137.652 23.8242V28.2938H100.435L97.2891 23.8242H137.652Z" fill="#3D3D3D"/>
<path d="M78.474 26.7989C78.9106 26.7989 79.2645 26.4443 79.2645 26.0069C79.2645 25.5695 78.9106 25.2148 78.474 25.2148C78.0375 25.2148 77.6836 25.5695 77.6836 26.0069C77.6836 26.4443 78.0375 26.7989 78.474 26.7989Z" fill="#106AEB" fill-opacity="0.35"/>
<path d="M81.1029 26.7989C81.5395 26.7989 81.8934 26.4443 81.8934 26.0069C81.8934 25.5695 81.5395 25.2148 81.1029 25.2148C80.6664 25.2148 80.3125 25.5695 80.3125 26.0069C80.3125 26.4443 80.6664 26.7989 81.1029 26.7989Z" fill="#106AEB" fill-opacity="0.35"/>
<path d="M83.7319 26.7989C84.1684 26.7989 84.5223 26.4443 84.5223 26.0069C84.5223 25.5695 84.1684 25.2148 83.7319 25.2148C83.2953 25.2148 82.9414 25.5695 82.9414 26.0069C82.9414 26.4443 83.2953 26.7989 83.7319 26.7989Z" fill="#106AEB" fill-opacity="0.35"/>
<path opacity="0.4" d="M105.623 70.014H105.124L97.7501 64.3918L103.342 57.6424L97.7443 51.5416L100.769 46.1315L94.0096 39.2192L99.6343 33.1266L95.842 29.6711L74.8594 29.0766V28.293H97.0688L100.463 33.1381L96.0228 38.8036L102.978 45.0979L98.8579 50.9534L103.959 57.5521L99.6752 64.6066L102.668 67.2408L104.462 68.8847L105.623 70.014Z" fill="white"/>
<path opacity="0.4" d="M137.521 28.2734V70.0192H135.922L136.012 30.0717L101.313 29.3255L100.574 28.2734H137.521Z" fill="white"/>
<path d="M103.955 57.5562L103.483 58.3317C103.375 58.3472 103.267 58.3627 103.159 58.3796C102.097 58.5557 101.048 58.8617 100.041 59.2943C98.8853 59.7902 97.7854 60.45 96.7826 61.2518C96.7657 61.2673 96.7394 61.2642 96.724 61.2457C96.7116 61.2302 96.7116 61.2055 96.7255 61.1916C97.6031 60.243 98.6151 59.404 99.7352 58.7088C100.834 58.029 102.036 57.4913 103.301 57.1237C103.326 57.116 103.352 57.1098 103.377 57.1021H103.38C103.448 57.0819 103.517 57.0758 103.585 57.0789L103.955 57.5562Z" fill="#3D3D3D"/>
<path d="M105.799 69.8376C104.13 68.1427 100.773 65.2258 99.9973 64.5552L103.829 58.2455L104.17 57.6831L104.26 57.5348L103.903 57.0728L99.1676 50.9453L103.31 45.0605L96.3618 38.7738L100.774 33.1454L97.366 28.2926L94.1508 23.7148H74.6038V51.1617H67.9141V66.4015C67.9141 66.5499 67.9233 66.6966 67.9403 66.8403V68.2756C67.9403 68.8086 68.1535 69.2921 68.4997 69.6475C68.5337 69.683 68.5692 69.717 68.6062 69.7494C68.6294 69.771 68.6541 69.7912 68.6788 69.8097C68.6958 69.8252 68.7143 69.8391 68.7328 69.8529C68.7638 69.8776 68.7962 69.8992 68.8286 69.9194C68.8441 69.9302 68.8596 69.941 68.8765 69.9503C68.912 69.9735 68.9476 69.9935 68.9847 70.0137C69.2612 70.162 69.5764 70.2454 69.9102 70.2454H71.3933C71.5201 70.2593 71.6483 70.2655 71.7781 70.2655H106.222L105.799 69.8376ZM74.6038 70.0137H69.9102C69.3308 70.0137 68.8147 69.7278 68.4995 69.2891C68.2925 69.0032 68.172 68.6541 68.172 68.2756V67.7873C68.1705 67.7827 68.1674 67.7765 68.1659 67.7719V51.4134H74.604V70.0137H74.6038ZM74.8556 70.0137V23.9666H94.0197L100.459 33.1377L96.0188 38.8032L102.974 45.0974L98.854 50.953L103.586 57.0742L103.956 57.5516L103.484 58.3272L99.6713 64.6061C99.6713 64.6061 103.721 68.087 105.619 70.0135H74.8556V70.0137Z" fill="#3D3D3D"/>
<path opacity="0.4" d="M73.8736 69.2852V70.0159H69.9106C69.3313 70.0159 68.8152 69.73 68.5 69.2913V69.2852H73.8736Z" fill="white"/>
<path opacity="0.4" d="M74.6051 51.4141H73.875V70.0143H74.6051V51.4141Z" fill="white"/>
<g opacity="0.4">
<path d="M137.507 26.9969C135.082 27.1789 132.548 27.2129 130.111 27.2243C127.673 27.2137 125.142 27.1802 122.715 26.9969C125.14 26.8138 127.674 26.78 130.111 26.7695C132.549 26.781 135.08 26.8148 137.507 26.9969Z" fill="white"/>
</g>
</svg>
