<svg width="22" height="22" viewBox="0 0 22 22" fill="none" xmlns="http://www.w3.org/2000/svg">
<path d="M20.6261 11.2139C20.6261 10.4225 20.5605 9.84497 20.4187 9.24609H11.1975V12.818H16.6102C16.5011 13.7057 15.9118 15.0425 14.6022 15.9408L14.5839 16.0603L17.4995 18.2738L17.7015 18.2936C19.5566 16.6145 20.6261 14.1441 20.6261 11.2139Z" fill="#106AEB"/>
<path d="M11.1969 20.6238C13.8486 20.6238 16.0748 19.7682 17.7008 18.2924L14.6016 15.9395C13.7723 16.5064 12.6592 16.9021 11.1969 16.9021C8.5997 16.9021 6.39536 15.2231 5.60957 12.9023L5.4944 12.9119L2.46274 15.2113L2.4231 15.3193C4.03815 18.4634 7.35561 20.6238 11.1969 20.6238Z" fill="#34A853"/>
<path d="M5.61006 12.9038C5.40272 12.305 5.28273 11.6632 5.28273 11.0002C5.28273 10.3371 5.40272 9.69549 5.59915 9.09661L5.59366 8.96906L2.524 6.63281L2.42357 6.67963C1.75792 7.98437 1.37598 9.44953 1.37598 11.0002C1.37598 12.5509 1.75792 14.016 2.42357 15.3207L5.61006 12.9038Z" fill="#FBBC05"/>
<path d="M11.1969 5.09664C13.0412 5.09664 14.2852 5.87733 14.9945 6.52974L17.7664 3.8775C16.064 2.32681 13.8487 1.375 11.1969 1.375C7.35564 1.375 4.03816 3.53526 2.4231 6.6794L5.59868 9.09638C6.39538 6.77569 8.59974 5.09664 11.1969 5.09664Z" fill="#EB4335"/>
</svg>
